<svg xmlns="http://www.w3.org/2000/svg" viewBox="0 0 512 512"><title>1</title><g id="Layer_2" data-name="Layer 2"><g id="Layer_1-2" data-name="Layer 1"><path d="M452,0H372a60.06,60.06,0,0,0-60,60V80H292a20,20,0,0,0,0,40h20v20a60.06,60.06,0,0,0,60,60h20v22a20,20,0,0,0,40,0V200h20a60.06,60.06,0,0,0,60-60V60A60.06,60.06,0,0,0,452,0Zm20,140a20,20,0,0,1-20,20H372a20,20,0,0,1-20-20V120h40a20,20,0,0,0,0-40H352V60a20,20,0,0,1,20-20h80a20,20,0,0,1,20,20ZM452,312H432V292a20,20,0,0,0-40,0v20H372a60.06,60.06,0,0,0-60,60v20H290a20,20,0,0,0,0,40h22v20a60.06,60.06,0,0,0,60,60h80a60.06,60.06,0,0,0,60-60V372A60.06,60.06,0,0,0,452,312Zm20,140a20,20,0,0,1-20,20H372a20,20,0,0,1-20-20V372a20,20,0,0,1,20-20h20v40a20,20,0,0,0,40,0V352h20a20,20,0,0,1,20,20ZM222,80H200V60A60.06,60.06,0,0,0,140,0H60A60.06,60.06,0,0,0,0,60v80a60.06,60.06,0,0,0,60,60H81v19a20,20,0,0,0,40,0V200h19a60.06,60.06,0,0,0,60-60V120h22a20,20,0,0,0,0-40Zm-62,60a20,20,0,0,1-20,20H121V119a20,20,0,0,0-40,0v41H60a20,20,0,0,1-20-20V60A20,20,0,0,1,60,40h80a20,20,0,0,1,20,20Zm60,252H200V372a60.06,60.06,0,0,0-60-60H121V289a20,20,0,0,0-40,0v23H60A60.06,60.06,0,0,0,0,372v80a60.06,60.06,0,0,0,60,60h80a60.06,60.06,0,0,0,60-60V432h20a20,20,0,0,0,0-40Zm-60,60a20,20,0,0,1-20,20H60a20,20,0,0,1-20-20V372a20,20,0,0,1,20-20h80a20,20,0,0,1,20,20v20H120a20,20,0,0,0,0,40h40Z"/></g></g></svg>