<svg xmlns="http://www.w3.org/2000/svg" viewBox="0 0 512 512"><title>15</title><g id="Layer_2" data-name="Layer 2"><g id="Capa_1" data-name="Capa 1"><path d="M405,257a60,60,0,0,0,0,120h85c.34,0,.67,0,1-.05s.65.05,1,.05a20,20,0,0,0,20-20V200a79.94,79.94,0,0,0-33.15-64.79L410.8,23.59A20,20,0,0,0,383.19,17L333,48.12,310.38,9.83a20,20,0,0,0-27.6-6.92L90.11,120H60a20,20,0,0,1-20-19.5A20,20,0,0,1,60,81H97a20,20,0,0,0,0-40H60A60.1,60.1,0,0,0,1.63,87.1,19.79,19.79,0,0,0,0,95V432a80.09,80.09,0,0,0,80,80H432a79.9,79.9,0,0,0,75.9-54.67A20,20,0,0,0,470,444.67,40,40,0,0,1,432,472H80a40,40,0,0,1-40-40V156.57A59.72,59.72,0,0,0,60,160H432a40,40,0,0,1,40,40v57Zm67,80H405a20,20,0,0,1,0-40h67ZM167.13,120,286.25,47.61l21.29,36A20.08,20.08,0,0,0,309,86.54a20.76,20.76,0,0,0,1.42,2L329,120Zm208.35,0L353.36,82.56l33.78-20.94L422.73,120Z"/></g></g></svg>