<svg xmlns="http://www.w3.org/2000/svg" viewBox="0 0 512 508"><title>2</title><g id="Layer_2" data-name="Layer 2"><g id="Capa_1" data-name="Capa 1"><circle cx="256" cy="106" r="20"/><path d="M492,468H20a20,20,0,0,0,0,40H492a20,20,0,0,0,0-40Z"/><path d="M512,125a20,20,0,0,0-11.89-18.28l-236.5-105a20,20,0,0,0-16.26,0l-235.5,105A20,20,0,0,0,0,125v53c0,.17,0,.33,0,.5s0,.33,0,.5a20,20,0,0,0,20,20c11.74,0,17,10.05,17,20V405.52c0,.42,0,.83.06,1.24S37,407.58,37,408a20,20,0,0,0,20,20H457a20,20,0,0,0,0-40H397V219a20,20,0,0,1,40,0v88.52a20,20,0,0,0,40,0V219c0-4.69,1.08-20,15-20a20,20,0,0,0,20-20c0-.17,0-.33,0-.5s0-.33,0-.5ZM117,388H77V219a20,20,0,0,1,40,0Zm80,0H157V219a20,20,0,0,1,40,0Zm80,0H237V219a20,20,0,0,1,40,0Zm80,0H317V219a20,20,0,0,1,40,0ZM472,158H40V138L255.52,41.89,472,138Z"/></g></g></svg>