<svg xmlns="http://www.w3.org/2000/svg" viewBox="0 0 512 512"><title>3</title><g id="Layer_2" data-name="Layer 2"><g id="Capa_1" data-name="Capa 1"><path d="M162,237H101a20,20,0,0,0,0,40h61a20,20,0,0,0,0-40Z"/><path d="M162,315H101a20,20,0,0,0,0,40h61a20,20,0,0,0,0-40Z"/><path d="M162,392H101a20,20,0,0,0,0,40h61a20,20,0,0,0,0-40Z"/><path d="M292,392H231a20,20,0,0,0,0,40h61a20,20,0,0,0,0-40Z"/><path d="M292,80H101a20,20,0,0,0-20,20v79a20,20,0,0,0,20,20H292a20,20,0,0,0,20-20V100A20,20,0,0,0,292,80Zm-20,79H121V120H272v39Z"/><path d="M492,352a20,20,0,0,0,20-20V282a20,20,0,0,0-20-20H392V20A20,20,0,0,0,372,0H20A20,20,0,0,0,0,20V432a80.11,80.11,0,0,0,80,80H432.46A80,80,0,0,0,512,432a20,20,0,0,0-40,0,40,40,0,0,1-40,40h0a40,40,0,0,1-40-40V302h80v30A20,20,0,0,0,492,352ZM80,472a40.06,40.06,0,0,1-40-40V40H352V432a79.5,79.5,0,0,0,10.74,40Z"/><path d="M292,237H231a20,20,0,0,0,0,40h61a20,20,0,0,0,0-40Z"/><path d="M292,315H231a20,20,0,0,0,0,40h61a20,20,0,0,0,0-40Z"/></g></g></svg>