<svg xmlns="http://www.w3.org/2000/svg" viewBox="0 0 512 512"><title>4</title><g id="Layer_2" data-name="Layer 2"><g id="Layer_1-2" data-name="Layer 1"><path d="M477.51,250.83C459.68,241.91,436.41,237,412,237s-47.68,4.91-65.51,13.83C324.25,262,312,278.34,312,297c0,.59,0,1.18,0,1.77,0,.41,0,.82,0,1.23v24.71C294.9,317.14,273.87,313,252,313c-24.41,0-47.68,4.91-65.51,13.83C164.25,338,152,354.34,152,373c0,.24,0,.47,0,.71a2.83,2.83,0,0,0,0,.29v78c0,18.66,12.25,35.05,34.49,46.17C204.32,507.09,227.59,512,252,512s47.68-4.91,65.51-13.83A85.23,85.23,0,0,0,332,489.11a85.23,85.23,0,0,0,14.49,9.06C364.32,507.09,387.59,512,412,512s47.68-4.91,65.51-13.83C499.75,487.05,512,470.66,512,452V297C512,278.34,499.75,262,477.51,250.83ZM299.62,462.39C287.42,468.5,270.06,472,252,472s-35.42-3.5-47.62-9.61C194.15,457.29,192,452.69,192,452V421.71C209,429,230,433,252,433h2.23a20,20,0,1,0-.46-40H252c-18.06,0-35.41-3.5-47.62-9.61C194.15,378.29,192,373.69,192,373s2.15-5.29,12.38-10.39C216.58,356.5,233.94,353,252,353c17.85,0,35.12,3.64,47.38,10C309,368,312,372.8,312,374v78C312,452.69,309.85,457.29,299.62,462.39ZM472,452c0,.69-2.15,5.29-12.38,10.39C447.42,468.5,430.06,472,412,472s-35.42-3.5-47.62-9.61C354.15,457.29,352,452.69,352,452V421.71C369,429,390,433,412,433c.75,0,1.5,0,2.25,0a20,20,0,1,0-.5-40H412c-18.06,0-35.42-3.5-47.62-9.61C354.15,378.29,352,373.69,352,373V345.73C369,353,390,357,412,357c.75,0,1.5,0,2.25,0a20,20,0,0,0-.24-40h-2c-18.06,0-35.41-3.5-47.62-9.61C354.15,302.29,352,297.69,352,297s2.15-5.29,12.38-10.39C376.58,280.5,393.94,277,412,277s35.42,3.5,47.62,9.61c10.23,5.1,12.38,9.7,12.38,10.39ZM512,80V192a20,20,0,0,1-40,0V80a40.05,40.05,0,0,0-40-40H80A40.05,40.05,0,0,0,40,80V286a40.05,40.05,0,0,0,40,40H95a20,20,0,0,1,0,40H80A80.09,80.09,0,0,1,0,286V80A80.09,80.09,0,0,1,80,0H432A80.09,80.09,0,0,1,512,80ZM312,185.18c0-.76,0-1.53,0-2.3,0-34.74-25.12-63-56-63s-56,28.26-56,63c0,23.53,11.55,44.94,30.15,55.88a20,20,0,0,1-20.28,34.48C179.11,255.14,160,220.52,160,182.88c0-56.79,43.07-103,96-103s96,46.21,96,103c0,1.2,0,2.39-.06,3.58-.1,3.33-.36,6.69-.76,10a20,20,0,1,1-39.71-4.87C311.73,189.47,311.89,187.32,312,185.18ZM97,157a20,20,0,1,1-20,20A20,20,0,0,1,97,157Zm320,40a20,20,0,1,1,20-20A20,20,0,0,1,417,197Z"/></g></g></svg>