<svg xmlns="http://www.w3.org/2000/svg" viewBox="0 0 410 512"><title>5</title><g id="Layer_2" data-name="Layer 2"><g id="Capa_1" data-name="Capa 1"><path d="M390,306a20,20,0,0,0,20-20V80A80.09,80.09,0,0,0,330,0H80A80.09,80.09,0,0,0,0,80V432a80.09,80.09,0,0,0,80,80H330a80.09,80.09,0,0,0,80-80V386a20,20,0,0,0-20-20H330V356a20,20,0,0,0-40,0v10H260V356a20,20,0,0,0-40,0v10H40V276H81v10a20,20,0,0,0,40,0V276h30v10a20,20,0,0,0,40,0V276h99v10a20,20,0,0,0,40,0V276h40v10A20,20,0,0,0,390,306ZM220,406v10a20,20,0,0,0,40,0V406h30v10a20,20,0,0,0,40,0V406h40v26a40,40,0,0,1-40,40H80a40,40,0,0,1-40-40V406ZM40,80A40,40,0,0,1,80,40H330a40,40,0,0,1,40,40v25H330V95a20,20,0,0,0-40,0v10H260V95a20,20,0,0,0-40,0v10H121V95a20,20,0,0,0-40,0v10H40ZM330,236V226a20,20,0,0,0-40,0v10H191V226a20,20,0,0,0-40,0v10H121V226a20,20,0,0,0-40,0v10H40V145H81v10a20,20,0,0,0,40,0V145h99v10a20,20,0,0,0,40,0V145h30v10a20,20,0,0,0,40,0V145h40v91Z"/></g></g></svg>