<svg xmlns="http://www.w3.org/2000/svg" viewBox="0 0 512 512"><title>6</title><g id="Layer_2" data-name="Layer 2"><g id="Capa_1" data-name="Capa 1"><path d="M437,75A256,256,0,0,0,75,437a256.1,256.1,0,0,0,313.48,38.09,20,20,0,1,0-20.72-34.22A215.61,215.61,0,0,1,256,472C136.9,472,40,375.1,40,256,40,144.67,124.67,52.74,233,41.23V127c-60.75,10.89-107,64.12-107,128,0,71.68,58.32,130,130,130a129.63,129.63,0,0,0,94.44-40.76L441,403.72a20,20,0,0,0,27.61-5.6A255.38,255.38,0,0,0,437,75ZM273,40.67a214,214,0,0,1,35.3,5.75L273,81.71ZM256,345a90,90,0,1,1,90-90A90.1,90.1,0,0,1,256,345Zm68-200.73a129.1,129.1,0,0,0-40.67-16.36l66.45-66.45a216.88,216.88,0,0,1,35.45,21.59ZM415,109.92a217.54,217.54,0,0,1,25,33l-63.42,63.42a130.09,130.09,0,0,0-22-36Zm-41.8,201.39A129.15,129.15,0,0,0,386,255c0-.51,0-1,0-1.53l72.55-72.55a214,214,0,0,1,11.4,45.25l-89.75,89.75Zm72.49,47.6-31.32-20.57,56-56A214.89,214.89,0,0,1,445.65,358.91Z"/></g></g></svg>