<svg xmlns="http://www.w3.org/2000/svg" viewBox="0 0 512 460.96"><title>8</title><g id="Layer_2" data-name="Layer 2"><g id="Capa_1" data-name="Capa 1"><path d="M116,301v40a20,20,0,0,0,40,0V301a20,20,0,0,0-40,0Z"/><path d="M356,301v40a20,20,0,0,0,40,0V301a20,20,0,0,0-40,0Z"/><path d="M492,300a20,20,0,0,0,20-20V160a80.09,80.09,0,0,0-80-80H345.93V60a60.07,60.07,0,0,0-60-60H226.07a60.07,60.07,0,0,0-60,60V80H80A80.09,80.09,0,0,0,0,160V381a80.09,80.09,0,0,0,80,80H432a80.09,80.09,0,0,0,80-80,20,20,0,0,0-40,0,40,40,0,0,1-40,40H80a40,40,0,0,1-40-40V250H472v30A20,20,0,0,0,492,300ZM206.07,60a20,20,0,0,1,20-20h59.86a20,20,0,0,1,20,20V80H206.07ZM116,210H40V160a40,40,0,0,1,40-40h36Zm240,0H156V120H356Zm40,0V120h36a40,40,0,0,1,40,40v50Z"/></g></g></svg>