<svg xmlns="http://www.w3.org/2000/svg" viewBox="0 0 512 512"><title>9</title><g id="Layer_2" data-name="Layer 2"><g id="Capa_1" data-name="Capa 1"><path d="M510.7,438.72a20,20,0,0,0-39.16,8.16,20.9,20.9,0,0,1-4.23,17.51,20.36,20.36,0,0,1-16,7.61H361a20,20,0,0,0,0,40h90.31a60.76,60.76,0,0,0,59.39-73.28Z"/><path d="M276.31,272.77A220,220,0,0,1,439,369.56a20,20,0,1,0,33.22-22.28A260.14,260.14,0,0,0,337.42,244.87,135.9,135.9,0,0,0,392,136C392,61,331,0,256,0S120,61,120,136a135.89,135.89,0,0,0,54.64,108.92A260.07,260.07,0,0,0,1.3,438.72,60.76,60.76,0,0,0,60.69,512H148a20,20,0,0,0,0-40H60.69a20.32,20.32,0,0,1-16-7.61,20.86,20.86,0,0,1-4.23-17.51C60,352.81,139.44,282.67,233.64,273L195.46,446.7a20,20,0,0,0,5.39,18.43l40,40a20,20,0,0,0,28.28,0l40-40a20,20,0,0,0,5.39-18.43ZM160,136a96,96,0,1,1,100.76,95.88c-1.58,0-3.17,0-4.76,0s-3.12,0-4.68,0A96.1,96.1,0,0,1,160,136Zm95,326.71-18.12-18.12L255,362.17l18.11,82.42Z"/></g></g></svg>