<svg xmlns="http://www.w3.org/2000/svg" viewBox="0 0 314.6 85.04"><defs><style>.cls-1{fill:#ef4541;}.cls-2{fill:#fff;fill-rule:evenodd;}</style></defs><title>logo white</title><g id="Layer_2" data-name="Layer 2"><g id="_1" data-name="???? 1"><rect class="cls-1" width="85.04" height="85.04"/><path class="cls-2" d="M53.75,30.84a12.37,12.37,0,0,1-4.49,4.06,12.93,12.93,0,0,1-6,1.35,11.75,11.75,0,0,1-8.61-3.44,11.6,11.6,0,0,1-2.59-3.87,12.35,12.35,0,0,1-.87-4.69,12.74,12.74,0,0,1,.86-4.72,11.93,11.93,0,0,1,2.56-4,11.43,11.43,0,0,1,3.85-2.67A11.94,11.94,0,0,1,43.14,12a13.22,13.22,0,0,1,3.08.52c.63.17,1.19.29,1.67.37A6.9,6.9,0,0,0,49,13a2.27,2.27,0,0,0,1.72-.73l.15-.16h2v8H51.11L51,19.88a12.8,12.8,0,0,0-3.32-4.51,6.19,6.19,0,0,0-4-1.45,5.74,5.74,0,0,0-2.22.42A5.89,5.89,0,0,0,39.6,15.6a8.39,8.39,0,0,0-1.29,1.77,11.11,11.11,0,0,0-.92,2.32A13.45,13.45,0,0,0,37,21.64a17.66,17.66,0,0,0-.13,2.24A15.75,15.75,0,0,0,37,26a11.92,11.92,0,0,0,.44,1.92,10.78,10.78,0,0,0,1.08,2.43,8.46,8.46,0,0,0,1.52,1.87,6.89,6.89,0,0,0,2.11,1.3,6.76,6.76,0,0,0,2.43.43q4.3,0,7.38-4.19l.26-.36,1.85,1-.33.47ZM19.65,41.66H65.39v1.72H19.65V41.66Zm16.13,30a12.37,12.37,0,0,1-4.49-4.06L31,67.14l1.85-1,.26.35c2,2.8,4.51,4.19,7.38,4.19a6.76,6.76,0,0,0,2.43-.43A6.85,6.85,0,0,0,45,69a8.23,8.23,0,0,0,1.53-1.87,10.78,10.78,0,0,0,1.08-2.43A13.09,13.09,0,0,0,48,62.75a15.75,15.75,0,0,0,.14-2.1A17.66,17.66,0,0,0,48,58.41a13.45,13.45,0,0,0-.39-1.95,11.11,11.11,0,0,0-.92-2.32,8.39,8.39,0,0,0-1.29-1.77,5.89,5.89,0,0,0-1.86-1.26,5.74,5.74,0,0,0-2.22-.41,6.23,6.23,0,0,0-4,1.44,12.92,12.92,0,0,0-3.32,4.51l-.14.28H32.14v-8h2l.15.16A2.27,2.27,0,0,0,36,49.8a6.9,6.9,0,0,0,1.14-.12c.48-.08,1-.2,1.66-.37a13.37,13.37,0,0,1,3.09-.52,11.89,11.89,0,0,1,4.67.89,11.24,11.24,0,0,1,3.85,2.67A12,12,0,0,1,53,56.3,12.74,12.74,0,0,1,53.85,61,12.35,12.35,0,0,1,53,65.71a11.48,11.48,0,0,1-2.6,3.87A11.71,11.71,0,0,1,41.78,73,12.93,12.93,0,0,1,35.78,71.67Z"/><path class="cls-2" d="M136.58,30a15,15,0,0,1-5.45,4.93,15.65,15.65,0,0,1-7.28,1.65,14.24,14.24,0,0,1-10.45-4.18,13.89,13.89,0,0,1-3.15-4.7,15,15,0,0,1-1-5.69,15.53,15.53,0,0,1,1-5.73,14.58,14.58,0,0,1,3.11-4.79A13.85,13.85,0,0,1,118,8.2a14.61,14.61,0,0,1,5.67-1.08,15.93,15.93,0,0,1,3.75.64c.77.19,1.45.35,2,.45a9.14,9.14,0,0,0,1.39.14A2.92,2.92,0,0,0,132,8.13a3.11,3.11,0,0,0,1-.68l.17-.18h2.37V17h-2.1l-.16-.33a15.93,15.93,0,0,0-4.05-5.49,7.59,7.59,0,0,0-4.87-1.77,6.8,6.8,0,0,0-5,2.05,10,10,0,0,0-1.58,2.16,13.69,13.69,0,0,0-1.12,2.83,16.42,16.42,0,0,0-.48,2.38,23.66,23.66,0,0,0-.15,2.73,17.66,17.66,0,0,0,.17,2.56,16.07,16.07,0,0,0,.53,2.35,13.82,13.82,0,0,0,1.32,3,10.71,10.71,0,0,0,1.86,2.29,8.75,8.75,0,0,0,2.58,1.59,8.38,8.38,0,0,0,3,.53,9.74,9.74,0,0,0,4.86-1.27,13.45,13.45,0,0,0,4.15-3.85l.29-.41,2.17,1.16-.36.53Zm15.71,6H138.88V33.75h.58a11.3,11.3,0,0,0,1.83-.12,2.31,2.31,0,0,0,.89-.28,1.47,1.47,0,0,0,.5-.76,5.3,5.3,0,0,0,.21-1.65V12.71a4.06,4.06,0,0,0-.23-1.46,1.8,1.8,0,0,0-.6-.81h0a2.27,2.27,0,0,0-.95-.41,6.81,6.81,0,0,0-1.62-.16h-.58V7.62h14V9.86h-.58a4.69,4.69,0,0,0-2.61.53,1.72,1.72,0,0,0-.56.82,4.51,4.51,0,0,0-.21,1.5V30.94a4.12,4.12,0,0,0,.22,1.46,1.7,1.7,0,0,0,.58.81,2.53,2.53,0,0,0,1,.39,7.44,7.44,0,0,0,1.62.15h.58V36Zm30.65-20.81h-1.72l-.17-.29a13.81,13.81,0,0,0-1.87-2.49,7.9,7.9,0,0,0-2-1.53,11.62,11.62,0,0,0-5-1v21.3a3.5,3.5,0,0,0,.25,1.45,1.54,1.54,0,0,0,.67.73h0a3.21,3.21,0,0,0,1,.28,12.82,12.82,0,0,0,1.8.11h.58V36H161.9V33.75h.58a15.43,15.43,0,0,0,2.35-.11,2,2,0,0,0,.9-.39,1.14,1.14,0,0,0,.38-.63h0a7.46,7.46,0,0,0,.14-1.67V9.87a11.91,11.91,0,0,0-2.4.31,8.47,8.47,0,0,0-2.39,1h0a10.51,10.51,0,0,0-1.92,1.45A22.86,22.86,0,0,0,157.34,15l-.18.22H155l1.64-7.56H182l1.64,7.56ZM213,9.85a4,4,0,0,0-2.21,1.34A19.74,19.74,0,0,0,208,15l-5.62,9.58V31.4c0,1,.2,1.6.59,1.8a8.82,8.82,0,0,0,3,.55l.54,0V36H192.39V33.75H193a11.2,11.2,0,0,0,1.81-.12,2.92,2.92,0,0,0,.95-.28c.49-.35.74-1.13.74-2.34V25.58L188.31,12c-.3-.49-.55-.88-.75-1.16a4,4,0,0,0-.47-.55,1.79,1.79,0,0,0-.71-.32,3.39,3.39,0,0,0-1.09-.08l-.61,0V7.62h13.88V9.84l-.57,0c-.58,0-1.06,0-1.45.05a6.27,6.27,0,0,0-.7.08h0a1.34,1.34,0,0,0-.72.34.73.73,0,0,0-.18.52,2.78,2.78,0,0,0,.3.92,17.8,17.8,0,0,0,1,1.86l5.08,8.49,3.2-5.45A21,21,0,0,0,206,13.76a6,6,0,0,0,.45-2,2.07,2.07,0,0,0-.14-.82,1.61,1.61,0,0,0-.39-.57,1.9,1.9,0,0,0-.65-.37,2.47,2.47,0,0,0-.86-.13h-.58V7.62h9.76V9.8l-.52,0ZM136.58,71.27a15,15,0,0,1-5.45,4.92,15.65,15.65,0,0,1-7.28,1.65,14.2,14.2,0,0,1-10.45-4.18A14,14,0,0,1,110.25,69a15.13,15.13,0,0,1-1-5.7,15.56,15.56,0,0,1,1-5.73,14.68,14.68,0,0,1,3.11-4.79A14,14,0,0,1,118,49.51a14.61,14.61,0,0,1,5.67-1.08,15.93,15.93,0,0,1,3.75.64c.77.2,1.45.35,2,.45a8.16,8.16,0,0,0,1.39.15,2.93,2.93,0,0,0,1.16-.23,3.08,3.08,0,0,0,1-.67l.17-.18h2.37v9.67h-2.1l-.16-.32a15.88,15.88,0,0,0-4.05-5.5,7.59,7.59,0,0,0-4.87-1.77,7.07,7.07,0,0,0-2.71.51,7,7,0,0,0-2.28,1.55,9.55,9.55,0,0,0-1.58,2.16,13.37,13.37,0,0,0-1.12,2.82,16.56,16.56,0,0,0-.48,2.39,23.41,23.41,0,0,0-.15,2.73,17.43,17.43,0,0,0,.17,2.55,16.21,16.21,0,0,0,.53,2.36,13.73,13.73,0,0,0,1.32,3A10.24,10.24,0,0,0,119.91,73a8.1,8.1,0,0,0,5.56,2.12,9.73,9.73,0,0,0,4.86-1.26A13.49,13.49,0,0,0,134.48,70l.29-.4,2.17,1.15-.36.54ZM168.87,63a17.72,17.72,0,0,1-1.05,6.33,12.2,12.2,0,0,1-3.19,4.73,13.09,13.09,0,0,1-4.88,2.84,20.17,20.17,0,0,1-6.42.94,15,15,0,0,1-5.75-1.06,13.26,13.26,0,0,1-4.64-3.19,14.08,14.08,0,0,1-3.05-4.77,16.32,16.32,0,0,1-1-5.82A15.5,15.5,0,0,1,140,57.15a13.4,13.4,0,0,1,3.22-4.68A14.16,14.16,0,0,1,148,49.41a16.52,16.52,0,0,1,5.91-1,16.25,16.25,0,0,1,5.84,1,14.59,14.59,0,0,1,4.82,3.09,13.53,13.53,0,0,1,3.22,4.69,15.13,15.13,0,0,1,1.08,5.8Zm-6.64,1.47a22.66,22.66,0,0,0-.31-3.85,19.14,19.14,0,0,0-.95-3.46,10.55,10.55,0,0,0-4.35-5.57,6.75,6.75,0,0,0-1.71-.72,7.28,7.28,0,0,0-1.88-.24,6.72,6.72,0,0,0-3.34.82,7.06,7.06,0,0,0-2.49,2.49,11.31,11.31,0,0,0-1.38,3.2,15.13,15.13,0,0,0-.46,3.86,25.41,25.41,0,0,0,.3,4,21.88,21.88,0,0,0,.9,3.65,14.2,14.2,0,0,0,1.83,3.59,8.9,8.9,0,0,0,2.48,2.35,6.88,6.88,0,0,0,1.68.78,6.29,6.29,0,0,0,1.79.25,6.83,6.83,0,0,0,1.58-.18,6.66,6.66,0,0,0,1.46-.56h0a7.28,7.28,0,0,0,2.18-1.73,9.6,9.6,0,0,0,1.59-2.68,13.77,13.77,0,0,0,.81-2.8,17.88,17.88,0,0,0,.26-3.18Zm39.63-13.3a3.79,3.79,0,0,0-1.5.27,2.7,2.7,0,0,0-1,.79,3.78,3.78,0,0,0-.66,1.26,5.62,5.62,0,0,0-.23,1.65V77.91h-2L177.55,55.85V69.78a8.45,8.45,0,0,0,.22,2,5.16,5.16,0,0,0,.65,1.59h0a3,3,0,0,0,2.85,1.64h.58V77.3H171.22V75.06h.58a2.39,2.39,0,0,0,1.49-.5,4.3,4.3,0,0,0,1.18-1.66h0A8.73,8.73,0,0,0,175.1,71a10.7,10.7,0,0,0,.21-2.16V53.28a7.85,7.85,0,0,0-1.95-1.56,4.18,4.18,0,0,0-2-.55h-.58V48.93h8.82l16.57,19.29V56.14a4.27,4.27,0,0,0-.35-1.72,5.87,5.87,0,0,0-1.1-1.67,5,5,0,0,0-1.52-1.2,3.77,3.77,0,0,0-1.65-.38H191V48.93h11.49v2.24Zm24.25,17.3a8.9,8.9,0,0,1-2.74,6.58,9.15,9.15,0,0,1-3,2,9.43,9.43,0,0,1-3.58.68,7.35,7.35,0,0,1-1.64-.22,19.63,19.63,0,0,1-2.15-.62c-.77-.26-1.45-.46-2-.59a7,7,0,0,0-1.39-.19,2.46,2.46,0,0,0-2,.94l-.18.22h-1.93v-11h2.25l.12.42a13.23,13.23,0,0,0,3.82,6.66A9.66,9.66,0,0,0,214.2,75a6.86,6.86,0,0,0,2.58.51,6,6,0,0,0,2-.33,5.39,5.39,0,0,0,1.7-1,4.37,4.37,0,0,0,1.13-1.5,4.6,4.6,0,0,0,.38-1.9,4.19,4.19,0,0,0-1-3.13,7.14,7.14,0,0,0-2.48-1.47,18.07,18.07,0,0,0-4-.91,16.41,16.41,0,0,1-4.8-1.26,7.82,7.82,0,0,1-3.11-2.44,7.25,7.25,0,0,1-1.09-2.19,8.19,8.19,0,0,1-.37-2.51,9.12,9.12,0,0,1,.58-3.26,8.3,8.3,0,0,1,1.74-2.72,7.7,7.7,0,0,1,2.63-1.84,8.29,8.29,0,0,1,3.22-.62,17.43,17.43,0,0,1,3,.38c.64.12,1.19.21,1.64.27a8.39,8.39,0,0,0,1.13.08,3.39,3.39,0,0,0,1.65-.43l.13-.07H223l1,9.06h-2.4l-.14-.38a13.3,13.3,0,0,0-1.32-2.73,10.69,10.69,0,0,0-1.8-2.14,7.4,7.4,0,0,0-5.16-2,4.7,4.7,0,0,0-3.27,1.29,4.33,4.33,0,0,0-1,1.41,3.9,3.9,0,0,0-.34,1.65,3.32,3.32,0,0,0,.33,1.53,2.8,2.8,0,0,0,1,1.07,11.43,11.43,0,0,0,3,1.28,34.33,34.33,0,0,0,4.75.94h0a17.7,17.7,0,0,1,2,.4,9.39,9.39,0,0,1,1.61.58h0a8.9,8.9,0,0,1,3.7,3.18,8.56,8.56,0,0,1,1.25,4.66Zm33.38-17.3a2.82,2.82,0,0,0-1.8.56,3.59,3.59,0,0,0-1.12,1.77h0a8.56,8.56,0,0,0-.38,1.9,25.16,25.16,0,0,0-.13,2.81v9.94a9.68,9.68,0,0,1-.9,4.27,8.44,8.44,0,0,1-2.69,3.18h0a11.1,11.1,0,0,1-3.59,1.68,17.1,17.1,0,0,1-4.45.55,15.69,15.69,0,0,1-5.62-.92,9.58,9.58,0,0,1-4-2.8,7.07,7.07,0,0,1-1.32-2.49,10.92,10.92,0,0,1-.43-3.2V53.75a3.76,3.76,0,0,0-.25-1.52,1.24,1.24,0,0,0-.6-.65h0a3.6,3.6,0,0,0-.83-.17c-.5-.08-1.18-.15-2-.23l-.53-.05V48.93H243v2.2l-.54,0a17.46,17.46,0,0,0-1.77.19,2.86,2.86,0,0,0-.81.2,1.21,1.21,0,0,0-.55.64,3.47,3.47,0,0,0-.22,1.37V68.88a5.76,5.76,0,0,0,2,4.73,6.51,6.51,0,0,0,2.2,1.11,10.61,10.61,0,0,0,2.95.38,9.64,9.64,0,0,0,3.22-.49,6.67,6.67,0,0,0,2.39-1.45,6.18,6.18,0,0,0,1.51-2.32,9.16,9.16,0,0,0,.51-3.19V58.16c0-1,0-1.76-.07-2.43a10.33,10.33,0,0,0-.19-1.58,4.81,4.81,0,0,0-.74-1.84,2.26,2.26,0,0,0-1.15-.86h0a5.1,5.1,0,0,0-.91-.21,10.73,10.73,0,0,0-1.22-.07H249V48.93h11.07v2.24ZM289.06,70l-2.69,7.32H262V75.06h.58a14,14,0,0,0,1.9-.1,3,3,0,0,0,1-.25,1.46,1.46,0,0,0,.55-.73,4.59,4.59,0,0,0,.23-1.58V54.21a9.62,9.62,0,0,0-.11-1.66,1.56,1.56,0,0,0-1.2-1.17,6.58,6.58,0,0,0-.87-.14c-.41,0-.9-.06-1.49-.07H262V48.93h14.53v2.24H276a17.31,17.31,0,0,0-2,.1,2.68,2.68,0,0,0-1,.25c-.55.32-.83,1.12-.83,2.39V72.79a2.61,2.61,0,0,0,.28,1.28,1.67,1.67,0,0,0,.79.69,4.37,4.37,0,0,0,1,.22,18.42,18.42,0,0,0,1.84.08,14.89,14.89,0,0,0,3.27-.33,9,9,0,0,0,2.58-1,9.87,9.87,0,0,0,2.05-1.64,21.18,21.18,0,0,0,2.2-2.66l.18-.25h2.9l-.28.78Zm24.82-13.49h.72L313,48.93H287.55l-1.64,7.56h2.19l.18-.22a22.67,22.67,0,0,1,2.19-2.37,9.77,9.77,0,0,1,1.92-1.45h0a8.47,8.47,0,0,1,2.39-.95,12.67,12.67,0,0,1,2.4-.31V72.25a7.46,7.46,0,0,1-.14,1.67h0a1.08,1.08,0,0,1-.38.63,2,2,0,0,1-.9.4,16,16,0,0,1-2.35.1h-.58V77.3h14.61V75.06h-.59a12.72,12.72,0,0,1-1.8-.11,3,3,0,0,1-1-.28h0a1.54,1.54,0,0,1-.67-.73,3.55,3.55,0,0,1-.25-1.46V51.18a11.61,11.61,0,0,1,5,1,7.63,7.63,0,0,1,2,1.52,13.91,13.91,0,0,1,1.87,2.5l.17.28Z"/></g></g></svg>